# xmcd
#
# Track frame offsets:
#	150
#	20386
#	43407
#	67142
#	88808
#	126715
#	149351
#	170808
#	194494
#	226068
#	242461
#	265363
#	288133
#	305588
#	318712
#	340100
#
# Disc length: 4770
#
# Revision: 1
# Processed by: cddbd v1.5.1PL0 Copyright (c) Steve Scherf et al.
# Submitted via: CDex 1.50beta8
# Normalized: r0:TDELIM( - )
#
DISCID=fc12a010
DTITLE=Various Artist - Cuatro Grandes (4in1) British and American Blues
DYEAR=2002
DGENRE=Blues
TTITLE0=Eric Clapton - Got Yoy on My Mind
TTITLE1=Eric Clapton - believe in Life
TTITLE2=Eric Clapton - Find Myself
TTITLE3=Eric Clapton - Second Nature
TTITLE4=Buddy Guy - Five Long Yers
TTITLE5=Buddy Guy - Too Broke to Spend the Night
TTITLE6=Buddy Guy - There is Something on Your Mind
TTITLE7=John Mayall - Don`t Turn Your Back
TTITLE8=John Mayall - Padlock on The Blues
TTITLE9=John Mayall - When The Blues are Bad
TTITLE10=John Mayall - I`ve Got to Talk to You
TTITLE11=Robert Cray - Porch Light
TTITLE12=Robert Cray - The Last Time (I get burned like this)
TTITLE13=Robert Cray - Baby`s Arms
TTITLE14=Robert Cray - Never Mattered Much
TTITLE15=Robert Cray - False Accusations
EXTD=YEAR: 2002
EXTT0=
EXTT1=
EXTT2=
EXTT3=
EXTT4=
EXTT5=
EXTT6=
EXTT7=
EXTT8=
EXTT9=
EXTT10=
EXTT11=
EXTT12=
EXTT13=
EXTT14=
EXTT15=
PLAYORDER=
